<svg width="24" height="24" viewBox="0 0 24 24" fill="none" xmlns="http://www.w3.org/2000/svg">
<path d="M0 3.42857C0 2.51926 0.361223 1.64719 1.00421 1.00421C1.64719 0.361223 2.51926 0 3.42857 0H20.5714C21.4807 0 22.3528 0.361223 22.9958 1.00421C23.6388 1.64719 24 2.51926 24 3.42857V20.5714C24 21.4807 23.6388 22.3528 22.9958 22.9958C22.3528 23.6388 21.4807 24 20.5714 24H3.42857C2.51926 24 1.64719 23.6388 1.00421 22.9958C0.361223 22.3528 0 21.4807 0 20.5714V3.42857ZM3.42857 1.71429C2.97391 1.71429 2.53788 1.8949 2.21639 2.21639C1.8949 2.53788 1.71429 2.97391 1.71429 3.42857V20.5714C1.71429 21.0261 1.8949 21.4621 2.21639 21.7836C2.53788 22.1051 2.97391 22.2857 3.42857 22.2857H20.5714C21.0261 22.2857 21.4621 22.1051 21.7836 21.7836C22.1051 21.4621 22.2857 21.0261 22.2857 20.5714V3.42857C22.2857 2.97391 22.1051 2.53788 21.7836 2.21639C21.4621 1.8949 21.0261 1.71429 20.5714 1.71429H3.42857ZM12 5.14286C12.2273 5.14286 12.4453 5.23316 12.6061 5.39391C12.7668 5.55465 12.8571 5.77267 12.8571 6V11.1429H18C18.2273 11.1429 18.4453 11.2332 18.6061 11.3939C18.7668 11.5547 18.8571 11.7727 18.8571 12C18.8571 12.2273 18.7668 12.4453 18.6061 12.6061C18.4453 12.7668 18.2273 12.8571 18 12.8571H12.8571V18C12.8571 18.2273 12.7668 18.4453 12.6061 18.6061C12.4453 18.7668 12.2273 18.8571 12 18.8571C11.7727 18.8571 11.5547 18.7668 11.3939 18.6061C11.2332 18.4453 11.1429 18.2273 11.1429 18V12.8571H6C5.77267 12.8571 5.55465 12.7668 5.39391 12.6061C5.23316 12.4453 5.14286 12.2273 5.14286 12C5.14286 11.7727 5.23316 11.5547 5.39391 11.3939C5.55465 11.2332 5.77267 11.1429 6 11.1429H11.1429V6C11.1429 5.77267 11.2332 5.55465 11.3939 5.39391C11.5547 5.23316 11.7727 5.14286 12 5.14286Z" fill="#FFBA00"/>
</svg>
