<svg width="29" height="30" viewBox="0 0 29 30" fill="none" xmlns="http://www.w3.org/2000/svg">
<path d="M14.5 8.75V6.25C14.5 4.875 13.4125 3.75 12.0833 3.75H4.83329C3.50413 3.75 2.41663 4.875 2.41663 6.25V23.75C2.41663 25.125 3.50413 26.25 4.83329 26.25H24.1666C25.4958 26.25 26.5833 25.125 26.5833 23.75V11.25C26.5833 9.875 25.4958 8.75 24.1666 8.75H14.5ZM7.24996 23.75H4.83329V21.25H7.24996V23.75ZM7.24996 18.75H4.83329V16.25H7.24996V18.75ZM7.24996 13.75H4.83329V11.25H7.24996V13.75ZM7.24996 8.75H4.83329V6.25H7.24996V8.75ZM12.0833 23.75H9.66663V21.25H12.0833V23.75ZM12.0833 18.75H9.66663V16.25H12.0833V18.75ZM12.0833 13.75H9.66663V11.25H12.0833V13.75ZM12.0833 8.75H9.66663V6.25H12.0833V8.75ZM22.9583 23.75H14.5V21.25H16.9166V18.75H14.5V16.25H16.9166V13.75H14.5V11.25H22.9583C23.6229 11.25 24.1666 11.8125 24.1666 12.5V22.5C24.1666 23.1875 23.6229 23.75 22.9583 23.75ZM21.75 13.75H19.3333V16.25H21.75V13.75ZM21.75 18.75H19.3333V21.25H21.75V18.75Z" fill="#F8F8F8"/>
</svg>
