<svg width="24" height="24" viewBox="0 0 24 24" fill="none" xmlns="http://www.w3.org/2000/svg">
<rect x="0.5" y="0.5" width="23" height="23" rx="3.5" stroke="#DFE0E3"/>
<path d="M10.8799 15.84C11.0496 15.84 11.2124 15.7725 11.3325 15.6525C11.4525 15.5325 11.5199 15.3697 11.5199 15.2V11.36C11.5199 11.1902 11.4525 11.0275 11.3325 10.9074C11.2124 10.7874 11.0496 10.72 10.8799 10.72C10.7102 10.72 10.5474 10.7874 10.4274 10.9074C10.3073 11.0275 10.2399 11.1902 10.2399 11.36V15.2C10.2399 15.3697 10.3073 15.5325 10.4274 15.6525C10.5474 15.7725 10.7102 15.84 10.8799 15.84ZM17.2799 8.15998H14.7199V7.51998C14.7199 7.01076 14.5176 6.5224 14.1575 6.16233C13.7975 5.80226 13.3091 5.59998 12.7999 5.59998H11.5199C11.0107 5.59998 10.5223 5.80226 10.1623 6.16233C9.80219 6.5224 9.5999 7.01076 9.5999 7.51998V8.15998H7.0399C6.87016 8.15998 6.70738 8.2274 6.58735 8.34743C6.46733 8.46745 6.3999 8.63024 6.3999 8.79998C6.3999 8.96971 6.46733 9.1325 6.58735 9.25252C6.70738 9.37255 6.87016 9.43998 7.0399 9.43998H7.6799V16.48C7.6799 16.9892 7.88219 17.4776 8.24226 17.8376C8.60233 18.1977 9.09069 18.4 9.5999 18.4H14.7199C15.2291 18.4 15.7175 18.1977 16.0775 17.8376C16.4376 17.4776 16.6399 16.9892 16.6399 16.48V9.43998H17.2799C17.4496 9.43998 17.6124 9.37255 17.7325 9.25252C17.8525 9.1325 17.9199 8.96971 17.9199 8.79998C17.9199 8.63024 17.8525 8.46745 17.7325 8.34743C17.6124 8.2274 17.4496 8.15998 17.2799 8.15998ZM10.8799 7.51998C10.8799 7.35024 10.9473 7.18745 11.0674 7.06743C11.1874 6.9474 11.3502 6.87998 11.5199 6.87998H12.7999C12.9696 6.87998 13.1324 6.9474 13.2525 7.06743C13.3725 7.18745 13.4399 7.35024 13.4399 7.51998V8.15998H10.8799V7.51998ZM15.3599 16.48C15.3599 16.6497 15.2925 16.8125 15.1725 16.9325C15.0524 17.0525 14.8896 17.12 14.7199 17.12H9.5999C9.43016 17.12 9.26738 17.0525 9.14735 16.9325C9.02733 16.8125 8.9599 16.6497 8.9599 16.48V9.43998H15.3599V16.48ZM13.4399 15.84C13.6096 15.84 13.7724 15.7725 13.8925 15.6525C14.0125 15.5325 14.0799 15.3697 14.0799 15.2V11.36C14.0799 11.1902 14.0125 11.0275 13.8925 10.9074C13.7724 10.7874 13.6096 10.72 13.4399 10.72C13.2702 10.72 13.1074 10.7874 12.9874 10.9074C12.8673 11.0275 12.7999 11.1902 12.7999 11.36V15.2C12.7999 15.3697 12.8673 15.5325 12.9874 15.6525C13.1074 15.7725 13.2702 15.84 13.4399 15.84Z" fill="#FD3C52"/>
</svg>
