<svg width="16" height="16" viewBox="0 0 16 16" fill="none" xmlns="http://www.w3.org/2000/svg">
<g clip-path="url(#clip0)">
<path d="M15.8559 7.5432C15.7324 7.36589 12.7804 3.20001 7.99904 3.20001C3.21769 3.20001 0.265695 7.36589 0.142227 7.5432C-0.0487109 7.81786 -0.0487109 8.18214 0.142227 8.45679C0.265695 8.63414 3.21769 12.8 7.99904 12.8C12.7804 12.8 15.7324 8.63414 15.8559 8.45683C16.0468 8.18214 16.0468 7.81789 15.8559 7.5432ZM7.99904 12C3.58091 12 0.799039 8.00001 0.799039 8.00001C0.799039 8.00001 3.58091 4.00001 7.99904 4.00001C12.4172 4.00001 15.199 8.00001 15.199 8.00001C15.199 8.00001 12.4172 12 7.99904 12Z" fill="#467DED"/>
<path d="M8.00078 4.79999C6.23359 4.79999 4.80078 6.23252 4.80078 7.99999C4.80078 9.76746 6.23331 11.2 8.00078 11.2C9.76825 11.2 11.2008 9.76746 11.2008 7.99999C11.2008 6.23252 9.76797 4.79999 8.00078 4.79999ZM8.00078 10.4C6.67731 10.4 5.60078 9.32346 5.60078 7.99999C5.60078 6.67652 6.67731 5.59999 8.00078 5.59999C9.32425 5.59999 10.4008 6.67652 10.4008 7.99999C10.4008 9.32346 9.32425 10.4 8.00078 10.4Z" fill="#467DED"/>
</g>
<defs>
<clipPath id="clip0">
<rect width="16" height="16" fill="white"/>
</clipPath>
</defs>
</svg>
