<svg width="15" height="15" viewBox="0 0 15 15" fill="none" xmlns="http://www.w3.org/2000/svg">
<g clip-path="url(#clip0)">
<path d="M1.41921 12.0005H1.5003L5.41244 11.1491C5.48864 11.1364 5.55926 11.1011 5.61513 11.0478L12.2434 4.41944C12.7276 3.93628 12.9978 3.27912 12.9934 2.59514C12.9943 1.90585 12.7251 1.24368 12.2434 0.750557C11.7603 0.266354 11.1031 -0.00379815 10.4191 0.000586054C9.73077 -0.00550528 9.0705 0.27326 8.59483 0.770848L1.98675 7.39915C1.92847 7.44606 1.88599 7.50972 1.86512 7.58158L1.0138 11.4937C0.990564 11.6342 1.03573 11.7773 1.13544 11.8789C1.21028 11.9552 1.31228 11.999 1.41921 12.0005ZM10.4191 0.811393C11.3931 0.811315 12.1827 1.60082 12.1827 2.57477C12.1827 2.58156 12.1827 2.58835 12.1826 2.59514C12.1893 3.05913 12.0062 3.50574 11.6759 3.83161L9.18267 1.3181C9.51113 0.991688 9.95603 0.809336 10.4191 0.811393ZM8.61509 1.90597L11.1083 4.39919L5.33132 10.1559L2.8381 7.68292L8.61509 1.90597ZM2.51379 8.49376L4.52051 10.5005L1.9462 11.0681L2.51379 8.49376Z" fill="#467DED"/>
<path d="M14.2906 14.1895H0.709603C0.485698 14.1895 0.304199 14.371 0.304199 14.5949C0.304199 14.8188 0.485698 15.0003 0.709603 15.0003H14.2906C14.5145 15.0003 14.696 14.8188 14.696 14.5949C14.696 14.371 14.5145 14.1895 14.2906 14.1895Z" fill="#467DED"/>
</g>
<defs>
<clipPath id="clip0">
<rect width="15" height="15" fill="white"/>
</clipPath>
</defs>
</svg>
