<svg width="24" height="24" viewBox="0 0 24 24" fill="none" xmlns="http://www.w3.org/2000/svg">
<rect x="0.5" y="0.5" width="23" height="23" rx="3.5" stroke="#DFE0E3"/>
<path d="M18.6134 11.7333C17.2667 8.60663 14.7334 6.66663 12 6.66663C9.26671 6.66663 6.73338 8.60663 5.38671 11.7333C5.35 11.8174 5.33105 11.9082 5.33105 12C5.33105 12.0917 5.35 12.1825 5.38671 12.2666C6.73338 15.3933 9.26671 17.3333 12 17.3333C14.7334 17.3333 17.2667 15.3933 18.6134 12.2666C18.6501 12.1825 18.669 12.0917 18.669 12C18.669 11.9082 18.6501 11.8174 18.6134 11.7333V11.7333ZM12 16C9.88671 16 7.88671 14.4733 6.73338 12C7.88671 9.52663 9.88671 7.99996 12 7.99996C14.1134 7.99996 16.1134 9.52663 17.2667 12C16.1134 14.4733 14.1134 16 12 16ZM12 9.33329C11.4726 9.33329 10.9571 9.48969 10.5185 9.78271C10.08 10.0757 9.7382 10.4922 9.53637 10.9795C9.33453 11.4667 9.28172 12.0029 9.38462 12.5202C9.48751 13.0375 9.74149 13.5126 10.1144 13.8856C10.4874 14.2585 10.9625 14.5125 11.4798 14.6154C11.9971 14.7183 12.5333 14.6655 13.0205 14.4636C13.5078 14.2618 13.9243 13.92 14.2173 13.4815C14.5103 13.0429 14.6667 12.5274 14.6667 12C14.6667 11.2927 14.3858 10.6144 13.8857 10.1143C13.3856 9.61424 12.7073 9.33329 12 9.33329V9.33329ZM12 13.3333C11.7363 13.3333 11.4786 13.2551 11.2593 13.1086C11.04 12.9621 10.8691 12.7538 10.7682 12.5102C10.6673 12.2666 10.6409 11.9985 10.6923 11.7398C10.7438 11.4812 10.8708 11.2436 11.0572 11.0572C11.2437 10.8707 11.4813 10.7437 11.7399 10.6922C11.9986 10.6408 12.2667 10.6672 12.5103 10.7681C12.7539 10.869 12.9622 11.0399 13.1087 11.2592C13.2552 11.4785 13.3334 11.7363 13.3334 12C13.3334 12.3536 13.1929 12.6927 12.9429 12.9428C12.6928 13.1928 12.3537 13.3333 12 13.3333Z" fill="#FFCC6A"/>
</svg>
