<?xml version="1.0" encoding="utf-8"?>
<!-- Generator: Adobe Illustrator 25.3.1, SVG Export Plug-In . SVG Version: 6.00 Build 0)  -->
<svg version="1.1" id="Layer_1" xmlns="http://www.w3.org/2000/svg" xmlns:xlink="http://www.w3.org/1999/xlink" x="0px" y="0px"
	 viewBox="0 0 1080 1080" style="enable-background:new 0 0 1080 1080;" xml:space="preserve">
<style type="text/css">
	.st0{fill:#fff;}
</style>
<g>
	<g>
		<path class="st0" d="M391.82,571.46c-17.57-17.57-17.57-46.06,0-63.64L584,315.64c10.47-10.47,10.47-27.45,0-37.92l-25.22-25.22
			c-10.62-10.62-27.85-10.62-38.48,0L326.57,446.24c-51.43,51.43-51.43,134.82,0,186.25l72.66,72.66c10.53,10.53,27.6,10.53,38.13,0
			l24.67-24.67c10.72-10.72,10.72-28.09,0-38.81L391.82,571.46z"/>
		<path class="st0" d="M495.1,801.02l27.57,27.57c9.16,9.16,24.01,9.16,33.16,0l29.98-29.98c9.16-9.16,9.16-24.01,0-33.16
			l-27.57-27.57c-9.16-9.16-24.01-9.16-33.16,0l-29.98,29.98C485.94,777.02,485.94,791.86,495.1,801.02z"/>
	</g>
	<g>
		<path class="st0" d="M753.43,448.35l-87.88-87.88L500.43,525.59c-10.36,10.36-10.36,27.16,0,37.52l19.96,19.96
			c10.37,10.37,27.19,10.37,37.57,0l102.54-102.54l31.69,31.69c16.5,16.5,16.5,43.25,0,59.75l-72.34,72.34
			c-10.55,10.55-10.55,27.66,0,38.21l23.71,23.71c10.56,10.56,27.69,10.56,38.25,0l71.63-71.63
			C804.86,583.17,804.86,499.79,753.43,448.35z"/>
	</g>
</g>
</svg>
