<svg width="24" height="24" viewBox="0 0 24 24" fill="none" xmlns="http://www.w3.org/2000/svg">
<path d="M19.68 10.8H4.31998C3.65758 10.8 3.59998 11.3364 3.59998 12C3.59998 12.6636 3.65758 13.2 4.31998 13.2H19.68C20.3424 13.2 20.4 12.6636 20.4 12C20.4 11.3364 20.3424 10.8 19.68 10.8ZM19.68 15.6H4.31998C3.65758 15.6 3.59998 16.1364 3.59998 16.8C3.59998 17.4636 3.65758 18 4.31998 18H19.68C20.3424 18 20.4 17.4636 20.4 16.8C20.4 16.1364 20.3424 15.6 19.68 15.6ZM4.31998 8.4H19.68C20.3424 8.4 20.4 7.8636 20.4 7.2C20.4 6.5364 20.3424 6 19.68 6H4.31998C3.65758 6 3.59998 6.5364 3.59998 7.2C3.59998 7.8636 3.65758 8.4 4.31998 8.4Z" fill="#666666"/>
</svg>
