<svg width="23" height="24" viewBox="0 0 23 24" fill="none" xmlns="http://www.w3.org/2000/svg">
<path fill-rule="evenodd" clip-rule="evenodd" d="M19.082 6.54206C19.522 7.56692 19.7657 8.69611 19.7657 9.8823V14.1176C19.7614 15.8964 20.5986 17.5722 22.0245 18.6352C22.5101 18.9995 22.7078 19.6333 22.5186 20.2093C22.3252 20.7882 21.7802 21.1806 21.1689 21.1764H14.113C14.113 22.7364 12.8494 23.9999 11.2894 23.9999C9.73369 23.9999 8.47157 22.7364 8.47157 21.1764H1.41277C0.805714 21.1764 0.26501 20.7882 0.0715984 20.2107C-0.118989 19.6347 0.080069 18.9995 0.565715 18.6352C1.99159 17.5722 2.833 15.8964 2.83159 14.1176V9.8823C2.83159 5.20373 6.62358 1.41174 11.2993 1.41174C11.6445 1.41174 11.9848 1.43241 12.3192 1.47257C11.6818 2.21257 11.296 3.17535 11.2943 4.22821C8.1336 4.2301 5.53789 6.72822 5.41935 9.88936V14.1246C5.41935 15.6169 5.01276 17.0809 4.24335 18.3599H18.3539C17.5845 17.0823 17.1779 15.6169 17.1765 14.1246V9.88936C17.1548 9.3178 17.0522 8.76791 16.88 8.25053C17.7926 7.94374 18.5663 7.33455 19.082 6.54206Z" fill="#6789FE"/>
<circle cx="16.3241" cy="3.5294" r="3.5294" fill="#FD3C52"/>
</svg>
