<svg width="29" height="30" viewBox="0 0 29 30" fill="none" xmlns="http://www.w3.org/2000/svg">
<path fill-rule="evenodd" clip-rule="evenodd" d="M5.41335 2H5.31668C4.87395 2 4.49308 2 4.15668 2.082C3.63591 2.21073 3.15976 2.48609 2.78098 2.87758C2.4022 3.26906 2.13559 3.76139 2.01068 4.3C1.93335 4.648 1.93335 5.04 1.93335 5.5V10.5C1.93335 10.958 1.93335 11.352 2.01262 11.7C2.13706 12.2387 2.40324 12.7313 2.78168 13.1231C3.16011 13.515 3.63603 13.7908 4.15668 13.92C4.49308 14 4.87202 14 5.31668 14H10.15C10.5928 14 10.9736 14 11.31 13.918C11.8308 13.7893 12.3069 13.5139 12.6857 13.1224C13.0645 12.7309 13.3311 12.2386 13.456 11.7C13.5334 11.352 13.5334 10.96 13.5334 10.5V5.5C13.5334 5.042 13.5334 4.648 13.4541 4.3C13.3296 3.76127 13.0635 3.2687 12.685 2.87686C12.3066 2.48502 11.8307 2.20922 11.31 2.08C10.9736 2 10.5947 2 10.15 2H5.41335ZM4.60715 4.028C4.69028 4.008 4.81982 4 5.41335 4H10.0534C10.6488 4 10.7764 4.006 10.8596 4.028C11.0332 4.07096 11.192 4.16285 11.3183 4.29347C11.4445 4.42409 11.5334 4.58834 11.5749 4.768C11.5942 4.852 11.6 4.984 11.6 5.6V10.4C11.6 11.016 11.5942 11.148 11.573 11.234C11.5314 11.4137 11.4426 11.5779 11.3163 11.7085C11.1901 11.8392 11.0313 11.931 10.8576 11.974C10.7784 11.992 10.6508 12 10.0534 12H5.41335C4.81788 12 4.69028 11.994 4.60715 11.972C4.43348 11.929 4.27471 11.8372 4.14844 11.7065C4.02217 11.5759 3.93335 11.4117 3.89182 11.232C3.87442 11.15 3.86668 11.018 3.86668 10.4V5.6C3.86668 4.984 3.87248 4.852 3.89375 4.766C3.93528 4.58634 4.02411 4.42209 4.15037 4.29147C4.27664 4.16085 4.43541 4.06896 4.60908 4.026L4.60715 4.028ZM18.9467 2H18.85C18.4073 2 18.0264 2 17.69 2.082C17.1692 2.21073 16.6931 2.48609 16.3143 2.87758C15.9355 3.26906 15.6689 3.76139 15.544 4.3C15.4667 4.648 15.4667 5.04 15.4667 5.5V10.5C15.4667 10.958 15.4667 11.352 15.546 11.7C15.6704 12.2387 15.9366 12.7313 16.315 13.1231C16.6934 13.515 17.1694 13.7908 17.69 13.92C18.0264 14 18.4054 14 18.85 14H23.6834C24.1261 14 24.507 14 24.8434 13.918C25.3641 13.7893 25.8403 13.5139 26.2191 13.1224C26.5978 12.7309 26.8644 12.2386 26.9894 11.7C27.0667 11.352 27.0667 10.96 27.0667 10.5V5.5C27.0667 5.042 27.0667 4.648 26.9874 4.3C26.863 3.76127 26.5968 3.2687 26.2184 2.87686C25.8399 2.48502 25.364 2.20922 24.8434 2.08C24.507 2 24.128 2 23.6834 2H18.9467ZM18.1405 4.028C18.2236 4.008 18.3532 4 18.9467 4H23.5867C24.1822 4 24.3098 4.006 24.3929 4.028C24.5666 4.07096 24.7253 4.16285 24.8516 4.29347C24.9779 4.42409 25.0667 4.58834 25.1082 4.768C25.1276 4.852 25.1334 4.984 25.1334 5.6V10.4C25.1334 11.016 25.1256 11.148 25.1063 11.234C25.0648 11.4137 24.9759 11.5779 24.8497 11.7085C24.7234 11.8392 24.5646 11.931 24.391 11.974C24.3098 11.994 24.1822 12 23.5867 12H18.9467C18.3512 12 18.2236 11.994 18.1405 11.972C17.9668 11.929 17.808 11.8372 17.6818 11.7065C17.5555 11.5759 17.4667 11.4117 17.4252 11.232C17.4078 11.15 17.4 11.018 17.4 10.4V5.6C17.4 4.984 17.4058 4.852 17.4271 4.766C17.4686 4.58634 17.5574 4.42209 17.6837 4.29147C17.81 4.16085 17.9687 4.06896 18.1424 4.026L18.1405 4.028ZM5.31668 16H10.15C10.5928 16 10.9736 16 11.31 16.082C11.8308 16.2107 12.3069 16.4861 12.6857 16.8776C13.0645 17.2691 13.3311 17.7614 13.456 18.3C13.5334 18.648 13.5334 19.04 13.5334 19.5V24.5C13.5334 24.958 13.5334 25.352 13.4541 25.7C13.3296 26.2387 13.0635 26.7313 12.685 27.1231C12.3066 27.515 11.8307 27.7908 11.31 27.92C10.9736 28 10.5947 28 10.15 28H5.31668C4.87395 28 4.49308 28 4.15668 27.918C3.63591 27.7893 3.15976 27.5139 2.78098 27.1224C2.4022 26.7309 2.13559 26.2386 2.01068 25.7C1.93335 25.352 1.93335 24.96 1.93335 24.5V19.5C1.93335 19.042 1.93335 18.648 2.01262 18.3C2.13706 17.7613 2.40324 17.2687 2.78168 16.8769C3.16011 16.485 3.63603 16.2092 4.15668 16.08C4.49308 16 4.87202 16 5.31668 16ZM5.41335 18C4.81788 18 4.69028 18.006 4.60715 18.028C4.43348 18.071 4.27471 18.1629 4.14844 18.2935C4.02217 18.4241 3.93335 18.5883 3.89182 18.768C3.87442 18.85 3.86668 18.982 3.86668 19.6V24.4C3.86668 25.016 3.87248 25.148 3.89375 25.234C3.93528 25.4137 4.02411 25.5779 4.15037 25.7085C4.27664 25.8392 4.43541 25.931 4.60908 25.974C4.69028 25.994 4.81788 26 5.41335 26H10.0534C10.6488 26 10.7764 25.992 10.8596 25.972C11.0332 25.929 11.192 25.8372 11.3183 25.7065C11.4445 25.5759 11.5334 25.4117 11.5749 25.232C11.5942 25.148 11.6 25.016 11.6 24.4V19.6C11.6 18.984 11.5942 18.852 11.573 18.766C11.5314 18.5863 11.4426 18.4221 11.3163 18.2915C11.1901 18.1609 11.0313 18.069 10.8576 18.026C10.7784 18.008 10.6508 18 10.0534 18H5.41335ZM18.9467 16H18.85C18.4073 16 18.0264 16 17.69 16.082C17.1692 16.2107 16.6931 16.4861 16.3143 16.8776C15.9355 17.2691 15.6689 17.7614 15.544 18.3C15.4667 18.648 15.4667 19.04 15.4667 19.5V24.5C15.4667 24.958 15.4667 25.352 15.546 25.7C15.6704 26.2387 15.9366 26.7313 16.315 27.1231C16.6934 27.515 17.1694 27.7908 17.69 27.92C18.0264 28.002 18.4073 28.002 18.85 28.002H23.6834C24.1261 28.002 24.507 28.002 24.8434 27.92C25.3638 27.7909 25.8395 27.5154 26.2179 27.124C26.5963 26.7325 26.8627 26.2404 26.9874 25.702C27.0667 25.354 27.0667 24.96 27.0667 24.502V19.5C27.0667 19.042 27.0667 18.648 26.9874 18.3C26.863 17.7613 26.5968 17.2687 26.2184 16.8769C25.8399 16.485 25.364 16.2092 24.8434 16.08C24.507 16 24.128 16 23.6834 16H18.9467ZM18.1405 18.028C18.2236 18.008 18.3532 18 18.9467 18H23.5867C24.1822 18 24.3098 18.006 24.3929 18.028C24.5666 18.071 24.7253 18.1629 24.8516 18.2935C24.9779 18.4241 25.0667 18.5883 25.1082 18.768C25.1276 18.852 25.1334 18.984 25.1334 19.6V24.4C25.1334 25.016 25.1256 25.148 25.1063 25.234C25.0648 25.4137 24.9759 25.5779 24.8497 25.7085C24.7234 25.8392 24.5646 25.931 24.391 25.974C24.3098 25.994 24.1822 26 23.5867 26H18.9467C18.3512 26 18.2236 25.992 18.1405 25.972C17.9668 25.929 17.808 25.8372 17.6818 25.7065C17.5555 25.5759 17.4667 25.4117 17.4252 25.232C17.4078 25.15 17.4 25.018 17.4 24.4V19.6C17.4 18.984 17.4058 18.852 17.4271 18.766C17.4686 18.5863 17.5574 18.4221 17.6837 18.2915C17.81 18.1609 17.9687 18.069 18.1424 18.026L18.1405 18.028Z" fill="#F8F8F8"/>
</svg>
