<svg width="20" height="20" viewBox="0 0 20 20" fill="none" xmlns="http://www.w3.org/2000/svg">
<g clip-path="url(#clip0)">
<path d="M19.2897 2.75895C18.8599 2.71977 18.4799 3.03637 18.4407 3.46605L18.3372 4.60156C16.581 1.84352 13.5324 0 10 0C6.19997 0 2.8511 2.16883 1.18868 5.42398C0.99243 5.80824 1.14485 6.27883 1.52911 6.47508C1.91345 6.67133 2.38395 6.51895 2.5802 6.13465C3.98712 3.3798 6.81239 1.5625 10 1.5625C12.9054 1.5625 15.5273 3.07543 17.0294 5.44563L15.9155 4.65004C15.5643 4.3993 15.0764 4.48063 14.8257 4.83172C14.5749 5.18285 14.6563 5.67074 15.0074 5.92152L18.3853 8.33406C18.8804 8.68699 19.5632 8.36391 19.6174 7.76926L19.9967 3.60793C20.0359 3.1782 19.7193 2.79812 19.2897 2.75895Z" fill="#467DED"/>
<path d="M18.4709 13.5254C18.0866 13.3292 17.616 13.4816 17.4198 13.8658C16.0128 16.6207 13.1876 18.438 9.99996 18.438C7.09461 18.438 4.47265 16.9251 2.97054 14.5549L4.08449 15.3504C4.43562 15.6012 4.92351 15.5199 5.17429 15.1688C5.42504 14.8176 5.34371 14.3297 4.99261 14.079L1.61468 11.6664C1.12566 11.317 0.437301 11.6304 0.382614 12.2312L0.00327764 16.3926C-0.035902 16.8222 0.2807 17.2023 0.710348 17.2415C1.14058 17.2806 1.52015 16.9637 1.55929 16.5344L1.66281 15.3989C3.41898 18.157 6.46757 20.0005 9.99996 20.0005C13.8 20.0005 17.1489 17.8317 18.8113 14.5765C19.0075 14.1922 18.8551 13.7217 18.4709 13.5254Z" fill="#467DED"/>
</g>
<defs>
<clipPath id="clip0">
<rect width="20" height="20" fill="white"/>
</clipPath>
</defs>
</svg>
