<svg width="29" height="30" viewBox="0 0 29 30" fill="none" xmlns="http://www.w3.org/2000/svg">
<path d="M25.8704 14.2625L15.2008 3.225C14.7537 2.7625 14.1375 2.5 13.497 2.5H4.83329C3.50413 2.5 2.41663 3.625 2.41663 5V13.9625C2.41663 14.625 2.67038 15.2625 3.12954 15.725L13.7991 26.7625C14.7416 27.7375 16.2762 27.7375 17.2187 26.7625L25.8825 17.8C26.825 16.825 26.825 15.25 25.8704 14.2625ZM15.5029 25L4.83329 13.9625V5H13.497L24.1666 16.0375L15.5029 25Z" fill="#F8F8F8"/>
<path d="M7.85413 10C8.85514 10 9.66663 9.16053 9.66663 8.125C9.66663 7.08947 8.85514 6.25 7.85413 6.25C6.85311 6.25 6.04163 7.08947 6.04163 8.125C6.04163 9.16053 6.85311 10 7.85413 10Z" fill="#F8F8F8"/>
</svg>
