<svg width="24" height="24" viewBox="0 0 24 24" fill="none" xmlns="http://www.w3.org/2000/svg">
    <path d="M17.38 17.92C17.6243 17.8185 17.8185 17.6243 17.92 17.38C17.9712 17.2598 17.9984 17.1307 18 17L18 7C18 6.73478 17.8946 6.48043 17.7071 6.29289C17.5196 6.10536 17.2652 6 17 6C16.7348 6 16.4804 6.10536 16.2929 6.29289C16.1054 6.48043 16 6.73478 16 7L16 14.59L7.71 6.29C7.61704 6.19627 7.50644 6.12188 7.38458 6.07111C7.26272 6.02034 7.13201 5.9942 7 5.9942C6.86799 5.9942 6.73728 6.02034 6.61542 6.07111C6.49356 6.12188 6.38296 6.19627 6.29 6.29C6.19627 6.38296 6.12188 6.49356 6.07111 6.61542C6.02034 6.73728 5.9942 6.86799 5.9942 7C5.9942 7.13201 6.02034 7.26272 6.07111 7.38458C6.12188 7.50644 6.19627 7.61704 6.29 7.71L14.59 16L7 16C6.73478 16 6.48043 16.1054 6.29289 16.2929C6.10536 16.4804 6 16.7348 6 17C6 17.2652 6.10536 17.5196 6.29289 17.7071C6.48043 17.8946 6.73478 18 7 18L17 18C17.1307 17.9984 17.2598 17.9712 17.38 17.92Z" fill="#fff" />
</svg>