<svg width="20" height="16" viewBox="0 0 20 16" fill="none" xmlns="http://www.w3.org/2000/svg">
<path d="M19.7099 5.28994L15.7099 1.28994C15.6167 1.1967 15.506 1.12274 15.3841 1.07228C15.2623 1.02182 15.1318 0.99585 14.9999 0.99585C14.7336 0.99585 14.4782 1.10164 14.2899 1.28994C14.1016 1.47825 13.9958 1.73364 13.9958 1.99994C13.9958 2.26624 14.1016 2.52164 14.2899 2.70994L16.5899 4.99994H4.9999C4.73468 4.99994 4.48033 5.1053 4.29279 5.29283C4.10525 5.48037 3.9999 5.73472 3.9999 5.99994C3.9999 6.26516 4.10525 6.51951 4.29279 6.70705C4.48033 6.89458 4.73468 6.99994 4.9999 6.99994H18.9999C19.1973 6.99896 19.39 6.93955 19.5538 6.82922C19.7175 6.71889 19.8449 6.56256 19.9199 6.37994C19.9965 6.19783 20.0174 5.99712 19.98 5.80313C19.9426 5.60914 19.8487 5.43057 19.7099 5.28994ZM14.9999 8.99994H0.999895C0.80247 9.00093 0.609754 9.06033 0.446034 9.17066C0.282313 9.281 0.154915 9.43732 0.0798953 9.61994C0.00331588 9.80205 -0.0176068 10.0028 0.0197673 10.1968C0.0571415 10.3907 0.151138 10.5693 0.289895 10.7099L4.2899 14.7099C4.38286 14.8037 4.49346 14.8781 4.61532 14.9288C4.73718 14.9796 4.86788 15.0057 4.9999 15.0057C5.13191 15.0057 5.26261 14.9796 5.38447 14.9288C5.50633 14.8781 5.61693 14.8037 5.7099 14.7099C5.80362 14.617 5.87802 14.5064 5.92879 14.3845C5.97956 14.2627 6.00569 14.132 6.00569 13.9999C6.00569 13.8679 5.97956 13.7372 5.92879 13.6154C5.87802 13.4935 5.80362 13.3829 5.7099 13.2899L3.4099 10.9999H14.9999C15.2651 10.9999 15.5195 10.8946 15.707 10.707C15.8945 10.5195 15.9999 10.2652 15.9999 9.99994C15.9999 9.73472 15.8945 9.48037 15.707 9.29284C15.5195 9.1053 15.2651 8.99994 14.9999 8.99994Z" fill="#A2A4A9"/>
</svg>
